<svg width="31" height="24" viewBox="0 0 31 24" fill="none" xmlns="http://www.w3.org/2000/svg">
<path d="M24.4991 0V6.51239C23.562 6.17968 22.5513 6.00066 21.4999 6.00066C19.4683 6.00066 17.5927 6.67365 16.0855 7.81247C17.6144 9.21177 18.6949 11.096 19.0873 13.219C19.6333 12.48 20.5094 12.0013 21.4999 12.0013C23.157 12.0013 24.4991 13.346 24.4991 15.0003C24.4991 16.6547 23.157 18.002 21.4999 18.002C20.5094 18.002 19.6333 17.5233 19.0873 16.7843C18.7191 16.2853 18.5007 15.6682 18.5007 15.0003C18.5007 12.3352 17.3427 9.94186 15.4988 8.29492C15.3122 8.1261 15.1154 7.96484 14.9147 7.81247C13.4075 6.67349 11.5319 6.00066 9.50026 6.00066C4.52769 6.00066 0.5 10.0307 0.5 15.0003C0.5 19.9699 4.52785 24 9.50026 24C11.5319 24 13.4075 23.327 14.9147 22.1907C13.3858 20.7889 12.3053 18.9058 11.9128 16.783C11.3668 17.522 10.4881 18.002 9.50026 18.002C7.84318 18.002 6.49842 16.6573 6.49842 15.0003C6.49842 13.3434 7.84318 12.0013 9.50026 12.0013C10.4894 12.0013 11.3668 12.4813 11.9128 13.2203C12.2811 13.7193 12.4995 14.3338 12.4995 15.0003C12.4995 17.6655 13.6575 20.0614 15.4987 21.7082C15.6866 21.877 15.8821 22.0383 16.0853 22.1907C17.5925 23.327 19.4681 24 21.4997 24C22.5524 24 23.562 23.8197 24.4989 23.4883C27.9935 22.2542 30.5 18.9211 30.5 15.0002V0H24.4989H24.4991Z" fill="#FF414D"/>
</svg>
