<?xml version="1.0" encoding="UTF-8" standalone="no"?>
<svg
   xmlns:dc="http://purl.org/dc/elements/1.1/"
   xmlns:cc="http://creativecommons.org/ns#"
   xmlns:rdf="http://www.w3.org/1999/02/22-rdf-syntax-ns#"
   xmlns:svg="http://www.w3.org/2000/svg"
   xmlns="http://www.w3.org/2000/svg"
   xmlns:sodipodi="http://sodipodi.sourceforge.net/DTD/sodipodi-0.dtd"
   xmlns:inkscape="http://www.inkscape.org/namespaces/inkscape"
   viewBox="0 0 500 500"
   version="1.1"
   id="svg17"
   sodipodi:docname="ads_tr.svg"
   inkscape:version="0.92.3 (2405546, 2018-03-11)">
  <metadata
     id="metadata21">
    <rdf:RDF>
      <cc:Work
         rdf:about="">
        <dc:format>image/svg+xml</dc:format>
        <dc:type
           rdf:resource="http://purl.org/dc/dcmitype/StillImage" />
      </cc:Work>
    </rdf:RDF>
  </metadata>
  <sodipodi:namedview
     pagecolor="#ffffff"
     bordercolor="#666666"
     borderopacity="1"
     objecttolerance="10"
     gridtolerance="10"
     guidetolerance="10"
     inkscape:pageopacity="0"
     inkscape:pageshadow="2"
     inkscape:window-width="2560"
     inkscape:window-height="1377"
     id="namedview19"
     showgrid="false"
     inkscape:zoom="1.888"
     inkscape:cx="175.38423"
     inkscape:cy="259.58451"
     inkscape:window-x="3832"
     inkscape:window-y="-8"
     inkscape:window-maximized="1"
     inkscape:current-layer="logo_icon_flat" />
  <defs
     id="defs4">
    <style
       id="style2">.cls-1{fill:none;}.cls-2{fill:#5fb2f9;}</style>
  </defs>
  <title
     id="title6">ads_tr</title>
  <g
     id="Warstwa_2"
     data-name="Warstwa 2">
    <g
       id="background">
      <rect
         class="cls-1"
         width="500"
         height="500"
         id="rect8"
         x="0"
         y="0"
         style="fill:none" />
    </g>
    <g
       id="logo_icon_flat">
      <path
         id="path13"
         style="fill:#5fb2f9"
         d="m 376.48,71.37 v 220.25 c 0,1 -0.05,2 -0.11,2.92 a 38.54,38.54 0 0 1 -11.1,25 36.26,36.26 0 0 1 -26.94,11.61 h -0.13 q -15.58,0 -26.8,-11.62 A 38.84,38.84 0 0 1 300.18,291.6 v -0.06 c 0,-0.82 0,-1.63 0.07,-2.44 -0.09,-21.92 -5.07,-42.08 -14.9,-60.27 a 141,141 0 0 0 -25.18,-34 q -4.94,-5 -10.12,-9.33 -35.69,-30 -82.93,-30.87 c -1,0 -1.94,-0.07 -2.93,-0.07 q -59.67,0 -100.34,39.48 -40.67,39.48 -40.66,97.3 c 0,0.09 0,0.18 0,0.27 q 0.09,56.6 40.65,96.77 40.56,40.17 98,40.27 42.32,0 75.5,-21.93 -4.83,-4.08 -9.45,-8.64 c -22.2,-22 -35.88,-47.77 -40.85,-76.92 a 36,36 0 0 1 -25.47,10.05 q -15.59,0 -26.8,-11.62 a 38.82,38.82 0 0 1 -11.22,-28 v 0 q 0,-16.62 11.09,-28.11 a 36,36 0 0 1 19.8,-10.86 39.48,39.48 0 0 1 7.13,-0.64 36.19,36.19 0 0 1 23.34,8 c 0.8,0.73 1.59,1.48 2.36,2.27 a 46.05,46.05 0 0 1 11.94,21.64 45.09,45.09 0 0 1 0.65,7.72 v 0 a 143.35,143.35 0 0 0 2.82,28.39 c 4.55,25.39 16.49,47.47 36.2,67 3.18,3.15 10.8,9.74 11.29,10.15 q 34.93,29.17 81,31.31 c 2.35,0.11 4.73,0.16 7.12,0.17 h 0.14 c 31.3,0 65.14,-6.88 97.83,-40.14 32.69,-33.26 40.51,-70.18 40.51,-96.83 v 0 V 71.37 Z M 312.09,262.6 a 35.94,35.94 0 0 1 26.11,-10.68 h 0.13 a 36.16,36.16 0 0 1 23.93,8.55 V 156.16 a 138.79,138.79 0 0 0 -21.42,-1.67 c -0.85,0 -1.66,0.09 -2.51,0.11 q -44,0.63 -77.51,22.93 6,4.92 11.59,10.58 c 21.3,21.44 34.59,46.41 39.68,74.49 z"
         inkscape:connector-curvature="0" />
    </g>
  </g>
</svg>
