<svg width="100" height="100" viewBox="0 0 100 100" fill="#1A1C1C" xmlns="http://www.w3.org/2000/svg">
    <path d="M65.6528 55.9294C65.5604 55.9294 65.469 55.9102 65.3844 55.873C65.2998 55.8358 65.2239 55.7815 65.1615 55.7134C63.2495 53.6307 57.1781 48.7801 42.1235 48.7281C41.9466 48.7281 41.7771 48.6578 41.652 48.5328C41.527 48.4078 41.4568 48.2382 41.4568 48.0614L41.5055 34.0341C41.506 33.8573 41.5768 33.688 41.7021 33.5634C41.8291 33.4411 41.9979 33.372 42.1741 33.3701H42.4135C57.2801 33.3701 63.3521 28.5767 65.2801 26.5074C65.3715 26.4092 65.4903 26.3409 65.6211 26.3113C65.7519 26.2818 65.8886 26.2923 66.0133 26.3416C66.138 26.391 66.2449 26.4767 66.3201 26.5878C66.3953 26.6988 66.4353 26.83 66.4348 26.9641L66.3195 55.2667C66.3189 55.4009 66.2779 55.5318 66.2018 55.6423C66.1257 55.7528 66.018 55.8378 65.8928 55.8861C65.8162 55.9154 65.7348 55.9301 65.6528 55.9294ZM42.7948 47.4001C55.4795 47.5607 61.9068 51.0194 64.9948 53.6974L65.0975 28.5241C61.9841 31.1907 55.5188 34.6267 42.8408 34.7007L42.7948 47.4001Z" />
    <path d="M67.4141 57.2042C67.0947 57.2042 66.7784 57.141 66.4835 57.0184C66.1885 56.8959 65.9207 56.7163 65.6953 56.49C65.4699 56.2636 65.2914 55.9951 65.17 55.6996C65.0487 55.4042 64.9868 55.0876 64.9881 54.7682L65.0987 27.4349C65.1026 26.7935 65.3597 26.1796 65.8141 25.7268C66.2684 25.2741 66.8833 25.0191 67.5247 25.0176C67.8442 25.0176 68.1606 25.0807 68.4557 25.2032C68.7508 25.3258 69.0187 25.5055 69.2442 25.7319C69.4696 25.9583 69.6482 26.227 69.7695 26.5225C69.8909 26.8181 69.9527 27.1347 69.9514 27.4542L69.8414 54.7876C69.8375 55.429 69.5804 56.0429 69.126 56.4957C68.6717 56.9484 68.0568 57.2033 67.4154 57.2049L67.4141 57.2042ZM67.5254 26.3496C67.2364 26.3501 66.9593 26.4648 66.7545 26.6687C66.5497 26.8727 66.4338 27.1492 66.4321 27.4382L66.3214 54.7716C66.321 54.9155 66.3489 55.058 66.4036 55.1911C66.4584 55.3242 66.5388 55.4451 66.6404 55.5471C66.742 55.649 66.8626 55.7299 66.9955 55.7851C67.1284 55.8404 67.2708 55.8688 67.4147 55.8689C67.7037 55.8684 67.9808 55.7537 68.1856 55.5498C68.3904 55.3458 68.5063 55.0692 68.5081 54.7802L68.6181 27.4469C68.6186 27.303 68.5907 27.1603 68.536 27.0272C68.4813 26.894 68.4009 26.773 68.2993 26.671C68.1977 26.569 68.077 26.488 67.9441 26.4328C67.8112 26.3775 67.6687 26.349 67.5247 26.3489L67.5254 26.3496Z" />
    <path d="M69.8666 45.3193H69.2746C69.0978 45.3193 68.9282 45.2491 68.8032 45.1241C68.6781 44.9991 68.6079 44.8295 68.6079 44.6527V37.5693C68.6079 37.3925 68.6781 37.223 68.8032 37.0979C68.9282 36.9729 69.0978 36.9027 69.2746 36.9027H69.8666C70.4237 36.8957 70.9766 36.9993 71.4934 37.2077C72.0101 37.416 72.4803 37.7249 72.8767 38.1164C73.2732 38.5078 73.5879 38.9741 73.8028 39.4882C74.0176 40.0023 74.1282 40.5539 74.1282 41.111C74.1282 41.6682 74.0176 42.2198 73.8028 42.7338C73.5879 43.2479 73.2732 43.7142 72.8767 44.1057C72.4803 44.4971 72.0101 44.806 71.4934 45.0143C70.9766 45.2227 70.4237 45.3264 69.8666 45.3193ZM69.9412 38.2367V43.9847C70.6928 43.9685 71.408 43.6586 71.9338 43.1214C72.4596 42.5842 72.754 41.8624 72.754 41.1107C72.754 40.359 72.4596 39.6372 71.9338 39.1C71.408 38.5628 70.6928 38.2529 69.9412 38.2367Z" />
    <path d="M42.1501 48.7686H37.3154C35.2784 48.7686 33.3248 47.9593 31.8844 46.5189C30.444 45.0785 29.6348 43.1249 29.6348 41.0879C29.6348 39.0509 30.444 37.0972 31.8844 35.6568C33.3248 34.2164 35.2784 33.4072 37.3154 33.4072H42.1501C42.3269 33.4072 42.4965 33.4775 42.6215 33.6025C42.7465 33.7275 42.8168 33.8971 42.8168 34.0739V48.1019C42.8168 48.2787 42.7465 48.4483 42.6215 48.5733C42.4965 48.6983 42.3269 48.7686 42.1501 48.7686ZM37.3154 34.7406C35.632 34.7406 34.0175 35.4093 32.8272 36.5996C31.6368 37.79 30.9681 39.4045 30.9681 41.0879C30.9681 42.7713 31.6368 44.3858 32.8272 45.5761C34.0175 46.7665 35.632 47.4352 37.3154 47.4352H41.4834V34.7406H37.3154Z" />
    <path d="M38.9701 38.7923H35.1108C34.9339 38.7923 34.7644 38.7221 34.6394 38.5971C34.5143 38.472 34.4441 38.3025 34.4441 38.1257C34.4441 37.9488 34.5143 37.7793 34.6394 37.6542C34.7644 37.5292 34.9339 37.459 35.1108 37.459H38.9701C39.1469 37.459 39.3165 37.5292 39.4415 37.6542C39.5665 37.7793 39.6368 37.9488 39.6368 38.1257C39.6368 38.3025 39.5665 38.472 39.4415 38.5971C39.3165 38.7221 39.1469 38.7923 38.9701 38.7923Z" />
    <path d="M39.5 41.7542H34.58C34.4032 41.7542 34.2336 41.684 34.1086 41.559C33.9836 41.4339 33.9133 41.2644 33.9133 41.0876C33.9133 40.9108 33.9836 40.7412 34.1086 40.6162C34.2336 40.4911 34.4032 40.4209 34.58 40.4209H39.5C39.6768 40.4209 39.8464 40.4911 39.9714 40.6162C40.0964 40.7412 40.1667 40.9108 40.1667 41.0876C40.1667 41.2644 40.0964 41.4339 39.9714 41.559C39.8464 41.684 39.6768 41.7542 39.5 41.7542Z" />
    <path d="M38.9701 44.7171H35.1108C34.9339 44.7171 34.7644 44.6469 34.6394 44.5219C34.5143 44.3968 34.4441 44.2273 34.4441 44.0505C34.4441 43.8736 34.5143 43.7041 34.6394 43.5791C34.7644 43.454 34.9339 43.3838 35.1108 43.3838H38.9701C39.1469 43.3838 39.3165 43.454 39.4415 43.5791C39.5665 43.7041 39.6368 43.8736 39.6368 44.0505C39.6368 44.2273 39.5665 44.3968 39.4415 44.5219C39.3165 44.6469 39.1469 44.7171 38.9701 44.7171Z" />
    <path d="M42.3859 61.6359H39.6246C39.1918 61.634 38.7727 61.4848 38.436 61.2129C38.0994 60.941 37.8654 60.5625 37.7726 60.1399L35.1826 48.0852C35.1622 47.9989 35.1593 47.9094 35.174 47.822C35.1886 47.7346 35.2206 47.6509 35.268 47.576C35.3154 47.5011 35.3772 47.4363 35.4499 47.3856C35.5227 47.3348 35.6048 47.2991 35.6914 47.2805C35.7781 47.2619 35.8676 47.2607 35.9548 47.2771C36.0419 47.2935 36.1249 47.3271 36.1989 47.376C36.2729 47.4249 36.3363 47.488 36.3856 47.5617C36.4349 47.6354 36.469 47.7182 36.4859 47.8052L39.0759 59.8599C39.1035 59.985 39.1728 60.0971 39.2726 60.1775C39.3723 60.258 39.4964 60.3021 39.6246 60.3026H42.3859C42.4695 60.3023 42.552 60.2834 42.6274 60.2473C42.7028 60.2111 42.7691 60.1585 42.8216 60.0934C42.874 60.0283 42.9113 59.9523 42.9306 59.8709C42.9499 59.7896 42.9508 59.705 42.9332 59.6232L40.4586 48.2439C40.4389 48.158 40.4365 48.0691 40.4515 47.9822C40.4664 47.8954 40.4984 47.8124 40.5457 47.738C40.5929 47.6636 40.6544 47.5993 40.7266 47.5488C40.7989 47.4984 40.8804 47.4627 40.9665 47.4439C41.0526 47.4252 41.1415 47.4237 41.2282 47.4395C41.3149 47.4553 41.3976 47.4882 41.4715 47.5361C41.5454 47.5841 41.609 47.6463 41.6588 47.719C41.7085 47.7917 41.7433 47.8736 41.7612 47.9599L44.2359 59.3399C44.2961 59.6162 44.2935 59.9026 44.2285 60.1778C44.1635 60.4531 44.0376 60.7102 43.8602 60.9305C43.6827 61.1507 43.4582 61.3284 43.2031 61.4505C42.948 61.5725 42.6687 61.6359 42.3859 61.6359Z" />
    <path d="M51.7259 36.3851C51.5584 36.3852 51.397 36.3221 51.2739 36.2086C51.1507 36.095 51.0748 35.9393 51.0613 35.7723C51.0477 35.6053 51.0976 35.4394 51.2008 35.3075C51.3041 35.1756 51.4533 35.0874 51.6186 35.0605C54.1697 34.658 56.672 33.9915 59.0853 33.0718C59.1673 33.0376 59.2553 33.0202 59.3442 33.0205C59.433 33.0208 59.5209 33.0389 59.6026 33.0737C59.6844 33.1085 59.7584 33.1593 59.8203 33.223C59.8821 33.2868 59.9306 33.3623 59.9629 33.4451C59.9951 33.5279 60.0105 33.6163 60.0081 33.7051C60.0057 33.7939 59.9856 33.8814 59.9489 33.9623C59.9123 34.0432 59.8598 34.116 59.7946 34.1764C59.7294 34.2367 59.6528 34.2835 59.5693 34.3138C57.0689 35.2678 54.4761 35.9591 51.8326 36.3765C51.7973 36.3819 51.7617 36.3848 51.7259 36.3851Z" fill="#000"/>
    <path d="M44.5186 37.0717C44.3418 37.0746 44.171 37.0072 44.044 36.8842C43.9169 36.7613 43.8438 36.5929 43.8409 36.4161C43.838 36.2392 43.9054 36.0685 44.0284 35.9414C44.1514 35.8143 44.3198 35.7413 44.4966 35.7384C46.0246 35.6871 47.5352 35.579 48.9879 35.419C49.1637 35.3997 49.3399 35.4509 49.4779 35.5615C49.6158 35.6721 49.7042 35.833 49.7236 36.0087C49.7429 36.1845 49.6917 36.3607 49.5811 36.4987C49.4705 36.6366 49.3097 36.725 49.1339 36.7444C47.6479 36.9084 46.1026 37.0184 44.5412 37.0711L44.5186 37.0717Z" fill="#000"/>
    <path d="M75.0314 38.5003C74.907 38.5001 74.7851 38.4652 74.6796 38.3994C74.574 38.3336 74.4889 38.2396 74.434 38.128C74.3791 38.0164 74.3565 37.8917 74.3687 37.7679C74.381 37.6441 74.4276 37.5263 74.5034 37.4276L75.7887 35.7523C75.898 35.6172 76.0557 35.5301 76.2283 35.5096C76.4008 35.489 76.5746 35.5367 76.7125 35.6424C76.8504 35.7481 76.9416 35.9034 76.9667 36.0754C76.9918 36.2473 76.9487 36.4223 76.8467 36.5629L75.5607 38.2396C75.4984 38.3208 75.4182 38.3865 75.3264 38.4317C75.2346 38.4769 75.1337 38.5004 75.0314 38.5003Z" fill="#000"/>
    <path d="M78.7568 41.7777H76.6454C76.4686 41.7777 76.299 41.7074 76.174 41.5824C76.049 41.4574 75.9788 41.2878 75.9788 41.111C75.9788 40.9342 76.049 40.7646 76.174 40.6396C76.299 40.5146 76.4686 40.4443 76.6454 40.4443H78.7568C78.9336 40.4443 79.1031 40.5146 79.2282 40.6396C79.3532 40.7646 79.4234 40.9342 79.4234 41.111C79.4234 41.2878 79.3532 41.4574 79.2282 41.5824C79.1031 41.7074 78.9336 41.7777 78.7568 41.7777Z" fill="#000"/>
    <path d="M76.3187 46.7331C76.2163 46.7332 76.1154 46.7098 76.0236 46.6646C75.9318 46.6194 75.8516 46.5536 75.7893 46.4725L74.5033 44.7965C74.3956 44.6562 74.3481 44.4788 74.3712 44.3035C74.3942 44.1282 74.486 43.9692 74.6263 43.8615C74.7666 43.7538 74.9439 43.7063 75.1193 43.7293C75.2946 43.7524 75.4536 43.8442 75.5613 43.9845L76.8473 45.6611C76.9229 45.7598 76.9694 45.8777 76.9815 46.0015C76.9936 46.1252 76.9709 46.2498 76.9159 46.3613C76.861 46.4728 76.7759 46.5667 76.6703 46.6324C76.5648 46.6981 76.443 46.733 76.3187 46.7331Z" fill="#000"/>
</svg>