<svg xmlns="http://www.w3.org/2000/svg" xmlns:xlink="http://www.w3.org/1999/xlink" width="139" height="107" viewBox="0 0 139 107">
    <defs>
        <rect id="a" width="24.881" height="10.161" x="-3.043" y="46.235" rx="5.081"/>
        <rect id="b" width="68.988" height="12.419" x="24.912" y="28.778" rx="6.21"/>
        <rect id="c" width="23" height="18" rx="3"/>
        <rect id="d" width="23" height="18" rx="3"/>
        <rect id="e" width="23" height="18" rx="3"/>
    </defs>
    <g fill="none" fill-rule="evenodd">
        <g>
            <circle cx="36" cy="26" r="6" fill="#55A8FD"/>
            <circle cx="30.5" cy="103.5" r="3.5" fill="#ECEEF3"/>
            <circle cx="96.5" cy="86.5" r="3.5" fill="#ECEEF3"/>
            <circle cx="135.5" cy="9.5" r="3.5" fill="#ECEEF3"/>
            <circle cx="73.5" cy="3.5" r="3.5" fill="#24D17E"/>
            <circle cx="3.5" cy="62.5" r="3.5" fill="#24D17E"/>
        </g>
        <path fill="#DEEEF9" d="M58.325 31.748l15.117-5.07.11 57.018-15.02-4.88z"/>
        <path fill="#FFF" d="M29.295 47.973L60.707 24.7l-6.138 44.304-27.082-8.8z"/>
        <path stroke="#55A8FD" stroke-width="2" d="M27.652 60.625l45.119 21.997-.076-57.007-45.663 22.181z"/>
        <g transform="rotate(90 15.595 59.94)">
            <use fill="#DEEEF9" xlink:href="#a"/>
            <rect width="22.881" height="8.161" x="-2.043" y="47.235" stroke="#55A8FD" stroke-width="2" rx="4.081"/>
        </g>
        <g transform="rotate(90 58.777 53.038)">
            <use fill="#FFF" xlink:href="#b"/>
            <rect width="66.988" height="10.419" x="25.912" y="29.778" stroke="#55A8FD" stroke-width="2" rx="5.21"/>
        </g>
        <path fill="#FFF" stroke="#55A8FD" stroke-width="2" d="M58.468 33.568l.375 43.032M33.465 51.57l21.395-9.552M93.293 48.56l15.292-10.464M92.682 61.42l15.465 10.961M94.776 54.978l11.093-.13"/>
        <g>
            <g transform="translate(116 18)">
                <use fill="#FFF" xlink:href="#c"/>
                <rect width="21" height="16" x="1" y="1" stroke="#55A8FD" stroke-width="2" rx="3"/>
            </g>
            <path stroke="#55A8FD" stroke-linecap="square" stroke-width="2" d="M122.325 24.75h9.2M122.325 29.25h4.6"/>
        </g>
        <g>
            <g transform="translate(116 45)">
                <use fill="#FFF" xlink:href="#d"/>
                <rect width="21" height="16" x="1" y="1" stroke="#55A8FD" stroke-width="2" rx="3"/>
            </g>
            <path stroke="#55A8FD" stroke-linecap="square" stroke-width="2" d="M122.325 51.75h9.2M122.325 56.25h4.6"/>
        </g>
        <g>
            <g transform="translate(116 71)">
                <use fill="#FFF" xlink:href="#e"/>
                <rect width="21" height="16" x="1" y="1" stroke="#55A8FD" stroke-width="2" rx="3"/>
            </g>
            <path stroke="#55A8FD" stroke-linecap="square" stroke-width="2" d="M122.325 77.75h9.2M122.325 82.25h4.6"/>
        </g>
    </g>
</svg>
