<svg width="100" height="100" viewBox="0 0 100 100" fill="#000" xmlns="http://www.w3.org/2000/svg">
    <path d="M86.4474 75.7088H14.5526C12.0301 75.696 9.99362 73.6453 10 71.125V14.5805C9.99362 12.0603 12.0301 10.0128 14.5526 10H86.4474C88.9699 10.0128 91.0064 12.0603 91 14.5805V71.1218C91.0064 73.6421 88.9699 75.696 86.4474 75.7056V75.7088ZM14.5526 11.2458C12.7175 11.2553 11.2373 12.7502 11.2469 14.5805V71.1218C11.2405 72.9553 12.7207 74.447 14.5526 74.4598H86.4474C88.2825 74.4502 89.7628 72.9553 89.7532 71.1218V14.5805C89.7596 12.747 88.2793 11.2553 86.4474 11.2458H14.5526Z" />
    <path d="M90.3766 63.0248H10.6234C10.2781 63.0248 10 62.7469 10 62.4051C10 62.0633 10.2781 61.7822 10.6234 61.7822H90.3766C90.7219 61.7822 91 62.0601 91 62.4051C91 62.7501 90.7219 63.028 90.3766 63.028V63.0248Z" />
    <path d="M66.076 88.9999H35.5443C35.199 88.9999 34.9209 88.722 34.9209 88.377C34.9209 88.2173 34.9816 88.0672 35.0903 87.949L40.9153 81.7905V75.0858C40.9153 74.7408 41.1935 74.4629 41.5388 74.4629C41.884 74.4629 42.1622 74.7408 42.1622 75.0858V82.0428C42.1622 82.2025 42.1014 82.3559 41.9927 82.4709L36.9894 87.7637H64.6245L59.5125 82.3591C59.4038 82.2441 59.343 82.0907 59.343 81.931V75.089C59.343 74.744 59.6212 74.4661 59.9664 74.4661C60.3117 74.4661 60.5899 74.744 60.5899 75.089V81.6819L66.5268 87.9586C66.7601 88.2109 66.7474 88.6038 66.4948 88.837C66.3797 88.9424 66.2326 89.0031 66.076 89.0031V88.9999Z" fill="#000"/>
    <path d="M50.5033 72.1187C48.5019 72.1379 46.8651 70.528 46.8459 68.5284C46.8267 66.5288 48.438 64.8934 50.4393 64.8742C52.4407 64.855 54.0776 66.4649 54.0967 68.4645C54.0967 68.4773 54.0967 68.4901 54.0967 68.5029C54.0967 70.4897 52.4918 72.1028 50.5033 72.1187ZM50.5033 66.12C49.1893 66.1008 48.1087 67.1517 48.0927 68.4645C48.0767 69.7774 49.1254 70.857 50.4393 70.873C51.7533 70.8921 52.8339 69.8412 52.8499 68.5284C52.8499 68.5188 52.8499 68.5124 52.8499 68.5029C52.8531 67.1996 51.8077 66.1391 50.5033 66.1231V66.12Z" fill="#000"/>
    <path d="M66.2006 48.4842H34.7962C32.6574 48.4842 30.9246 46.7497 30.9214 44.6128V27.4788C30.9214 25.3419 32.6574 23.6106 34.7962 23.6074H66.2006C68.3394 23.6074 70.0722 25.3419 70.0754 27.4788V44.6128C70.0754 46.7497 68.3394 48.481 66.2006 48.4842ZM34.7994 24.8532C33.3479 24.8532 32.1714 26.0287 32.1714 27.4788V44.6128C32.1714 46.0629 33.3479 47.2384 34.7994 47.2384H66.2038C67.6553 47.2384 68.8318 46.0629 68.8318 44.6128V27.4788C68.8318 26.0287 67.6553 24.8532 66.2038 24.8532H34.7994Z" />
    <path d="M42.8592 29.5391H44.2275L50.1228 42.5556H48.5531L47.0377 39.141H39.9978L38.4633 42.5556H36.967L42.8624 29.5391H42.8592ZM46.4622 37.8281L43.5242 31.2384L40.5669 37.8281H46.4622Z" />
    <path d="M52.6709 29.6318H57.1627C61.2294 29.6318 64.0363 32.4204 64.0363 36.0555V36.0938C64.0363 39.732 61.2262 42.5557 57.1627 42.5557H52.6709V29.6318ZM54.1319 30.9798V41.2078H57.1627C60.4333 41.2078 62.521 38.991 62.521 36.1321V36.0938C62.521 33.2317 60.4333 30.9798 57.1627 30.9798H54.1319Z" />
    <path d="M13.6667 58.6192C13.4899 58.6192 13.3203 58.5489 13.1953 58.4239C13.0702 58.2989 13 58.1293 13 57.9525V47.5632C13 47.3863 13.0702 47.2168 13.1953 47.0917C13.3203 46.9667 13.4899 46.8965 13.6667 46.8965C13.8435 46.8965 14.013 46.9667 14.1381 47.0917C14.2631 47.2168 14.3333 47.3863 14.3333 47.5632V57.9525C14.3333 58.1293 14.2631 58.2989 14.1381 58.4239C14.013 58.5489 13.8435 58.6192 13.6667 58.6192Z" fill="#000"/>
    <path d="M13.6667 43.8967C13.4899 43.8967 13.3203 43.8264 13.1953 43.7014C13.0702 43.5764 13 43.4068 13 43.23V17.6667C13 17.4899 13.0702 17.3203 13.1953 17.1953C13.3203 17.0702 13.4899 17 13.6667 17C13.8435 17 14.013 17.0702 14.1381 17.1953C14.2631 17.3203 14.3333 17.4899 14.3333 17.6667V43.23C14.3333 43.4068 14.2631 43.5764 14.1381 43.7014C14.013 43.8264 13.8435 43.8967 13.6667 43.8967Z" fill="#000"/>
</svg>