<svg xmlns="http://www.w3.org/2000/svg" xmlns:xlink="http://www.w3.org/1999/xlink" width="155" height="144" viewBox="0 0 155 144">
    <defs>
        <path id="a" d="M41 44h66a4 4 0 0 1 4 4v96a4 4 0 0 1-4 4H37"/>
        <path id="b" d="M37 51.499V34a4 4 0 0 1 4-4h66a4 4 0 0 1 4 4v96a4 4 0 0 1-4 4H41a4 4 0 0 1-4-4v-20.507"/>
        <path id="c" d="M46.5 51.316V41.5a3 3 0 0 1 3-3h49a3 3 0 0 1 3 3v80a3 3 0 0 1-3 3h-49a3 3 0 0 1-3-3v-12.304"/>
        <path id="d" d="M39 40h72a3 3 0 0 1 3 3v43.645l-7.635 6.9a3.006 3.006 0 0 1-.037.033L98.979 100H39a3 3 0 0 1-3-3V43a3 3 0 0 1 3-3z"/>
    </defs>
    <g fill="none" fill-rule="evenodd">
        <g>
            <circle cx="53" cy="6" r="6" fill="#55A8FD"/>
            <circle cx="25.5" cy="33.5" r="3.5" fill="#ECEEF3"/>
            <circle cx="11.5" cy="123.5" r="3.5" fill="#ECEEF3"/>
            <circle cx="151.5" cy="78.5" r="3.5" fill="#ECEEF3"/>
            <circle cx="118.5" cy="22.5" r="3.5" fill="#24D17E"/>
            <circle cx="3.5" cy="88.5" r="3.5" fill="#24D17E"/>
        </g>
        <g transform="rotate(90 74 96)">
            <use fill="#FFF" xlink:href="#a"/>
            <path stroke="#55A8FD" stroke-width="2" d="M41.962 45L38.04 147H107a3 3 0 0 0 3-3V48a3 3 0 0 0-3-3H41.962z"/>
        </g>
        <g transform="rotate(90 74 82)">
            <use fill="#DEEEF9" xlink:href="#b"/>
            <path stroke="#55A8FD" stroke-width="2" d="M38 34v96a3 3 0 0 0 3 3h66a3 3 0 0 0 3-3V34a3 3 0 0 0-3-3H41a3 3 0 0 0-3 3z"/>
        </g>
        <g transform="rotate(90 74 81.5)">
            <use fill="#FFF" xlink:href="#c"/>
            <path stroke="#55A8FD" stroke-width="2" d="M47.5 41.5v80a2 2 0 0 0 2 2h49a2 2 0 0 0 2-2v-80a2 2 0 0 0-2-2h-49a2 2 0 0 0-2 2z"/>
        </g>
        <g transform="rotate(-90 75 70)">
            <use fill="#FFF" xlink:href="#d"/>
            <path stroke="#55A8FD" stroke-width="2" d="M98.604 99l7.066-6.175.025-.022L113 86.2V43a2 2 0 0 0-2-2H39a2 2 0 0 0-2 2v54a2 2 0 0 0 2 2h59.604z"/>
        </g>
        <path stroke="#55A8FD" stroke-linecap="round" stroke-linejoin="round" stroke-width="2" d="M64 63l-6.875 7L54 66.818"/>
        <path fill="#DEEEF9" stroke="#55A8FD" stroke-linecap="square" stroke-width="2" d="M72.5 63h24.083M72.5 69h24.083M72.5 78h24.083M72.5 84h24.083M72.5 92h24.083M72.5 98h24.083"/>
        <path stroke="#55A8FD" stroke-linecap="round" stroke-linejoin="round" stroke-width="2" d="M64 77l-6.875 7L54 80.818M64 91l-6.875 7L54 94.818"/>
        <path fill="#DEEEF9" stroke="#55A8FD" stroke-linecap="square" stroke-width="2" d="M55.5 143h41.012M65 133v8M91 34v13h12.254M87 133v8"/>
    </g>
</svg>
