<svg xmlns="http://www.w3.org/2000/svg" xmlns:xlink="http://www.w3.org/1999/xlink" width="38" height="43" viewBox="0 0 38 43">
    <defs>
        <path id="a" d="M-2 5h37a3 3 0 0 1 3 3v22.654l-4.2 3.788a3 3 0 0 1-.038.033L29.719 38H-2a3 3 0 0 1-3-3V8a3 3 0 0 1 3-3z"/>
    </defs>
    <g fill="none" fill-rule="evenodd">
        <g transform="rotate(-90 16.5 21.5)">
            <use fill="#FFF" xlink:href="#a"/>
            <path stroke="#55A8FD" stroke-width="2" d="M29.345 37l3.76-3.278.025-.023L37 30.21V8a2 2 0 0 0-2-2H-2a2 2 0 0 0-2 2v27a2 2 0 0 0 2 2h31.345z"/>
        </g>
        <path fill="#DEEEF9" stroke="#55A8FD" stroke-linecap="square" stroke-width="2" d="M24 3v7h7"/>
        <rect width="27" height="15" x="11" y="20" fill="#55A8FD" rx="2"/>
        <text fill="#FFF" font-family="sans-serif" font-size="9" font-weight="normal">
            <tspan x="15" y="31">ZIP</tspan>
        </text>
    </g>
</svg>
