<?xml version="1.0" encoding="UTF-8"?><svg id="Layer_1" xmlns="http://www.w3.org/2000/svg" viewBox="0 0 44.01 44.01"><defs><style>.cls-1{fill:#fff;}</style></defs><path class="cls-1" d="M22,17.72c-2.36,0-4.28,1.92-4.28,4.28s1.91,4.28,4.28,4.28,4.28-1.91,4.28-4.28-1.92-4.28-4.28-4.28Zm0,7.06c-1.53,0-2.78-1.24-2.78-2.78s1.24-2.78,2.78-2.78,2.78,1.24,2.78,2.78-1.24,2.78-2.78,2.78Zm4.45-8.23c-.55,0-1,.45-1,1s.45,1,1,1,1-.45,1-1-.45-1-1-1Zm0,0c-.55,0-1,.45-1,1s.45,1,1,1,1-.45,1-1-.45-1-1-1Zm-4.45,1.17c-2.36,0-4.28,1.92-4.28,4.28s1.91,4.28,4.28,4.28,4.28-1.91,4.28-4.28-1.92-4.28-4.28-4.28Zm0,7.06c-1.53,0-2.78-1.24-2.78-2.78s1.24-2.78,2.78-2.78,2.78,1.24,2.78,2.78-1.24,2.78-2.78,2.78ZM22,0C9.85,0,0,9.85,0,22s9.85,22,22,22,22-9.85,22-22S34.16,0,22,0Zm8.29,25.44c-.06,1.29-.41,2.57-1.35,3.5-.93,.93-2.21,1.29-3.5,1.35-.89,.04-1.17,.05-3.44,.05s-2.55,0-3.44-.05c-1.29-.06-2.57-.41-3.5-1.35s-1.29-2.21-1.35-3.5c-.04-.89-.05-1.17-.05-3.44s0-2.55,.05-3.44c.06-1.29,.41-2.57,1.35-3.5,.94-.93,2.21-1.29,3.5-1.35,.89-.04,1.17-.05,3.44-.05s2.55,0,3.44,.05c1.28,.06,2.56,.42,3.5,1.35,.93,.93,1.29,2.21,1.35,3.5,.04,.89,.05,1.17,.05,3.44s0,2.55-.05,3.44Zm-3.84-8.89c-.55,0-1,.45-1,1s.45,1,1,1,1-.45,1-1-.45-1-1-1Zm-4.45,1.17c-2.36,0-4.28,1.92-4.28,4.28s1.91,4.28,4.28,4.28,4.28-1.91,4.28-4.28-1.92-4.28-4.28-4.28Zm0,7.06c-1.53,0-2.78-1.24-2.78-2.78s1.24-2.78,2.78-2.78,2.78,1.24,2.78,2.78-1.24,2.78-2.78,2.78Z"/></svg>