<?xml version="1.0" encoding="UTF-8"?><svg id="Layer_1" xmlns="http://www.w3.org/2000/svg" viewBox="0 0 44.01 44.01"><defs><style>.cls-1{fill:#fff;}</style></defs><path class="cls-1" d="M22,0C9.85,0,0,9.85,0,22s9.85,22,22,22,22-9.85,22-22S34.15,0,22,0Zm-4.97,16.82c-1.01,0-1.83-.82-1.83-1.83s.82-1.83,1.83-1.83,1.83,.82,1.83,1.83-.82,1.83-1.83,1.83Zm1.57,1.39v10.15h-3.15v-10.15h3.15Zm11.82,10.15h-3.15v-4.94c0-1.18-.02-2.69-1.64-2.69s-1.9,1.28-1.9,2.61v5.02h-3.15v-10.15h3.03v1.39h.04c.62-1.05,1.76-1.68,2.99-1.64,3.19,0,3.78,2.1,3.78,4.83v5.57Z"/></svg>