<svg id="logo-signet-white" xmlns="http://www.w3.org/2000/svg" viewBox="0 0 479.09 473.49"><defs><style>.logo-signet-white-1{fill:#fff;}</style></defs><path class="logo-signet-white-1" d="M360.49,117.78c-32.62-32.62-75.37-48.93-118.13-48.93s-85.53,16.31-118.15,48.93c-65.24,65.25-65.24,171.04,0,236.29,32.62,32.62,75.39,48.93,118.15,48.93s85.51-16.31,118.13-48.93c65.26-65.25,65.26-171.04,0-236.29Zm-134.14,190.62l-68.62,12.13,12.15-68.61,10.53-59.58c4.94,14.85,12.03,29.15,21.27,42.38-.51,.63-.98,1.27-1.4,1.93-3.43,5.1-5.11,11.09-4.99,17.07-2.55-3.18-4.99-6.44-7.29-9.76l-1.91,10.83-8.05,45.43,45.44-8.03,10.83-1.91c-3.31-2.3-6.57-4.72-9.73-7.27,.15,.02,.3,.02,.45,.02,5.82,0,11.62-1.68,16.59-5.01,.66-.44,1.3-.9,1.92-1.41,13.24,9.23,27.52,16.32,42.35,21.24l-59.54,10.55Zm-16.22-62.53c.32-.66,.7-1.3,1.11-1.93,.59-.89,1.25-1.7,2.02-2.47,1.75-1.74,3.77-3.03,6.04-3.87,.73-.26,1.47-.47,2.21-.64,1.17-.26,2.35-.38,3.52-.38,4.34,0,8.61,1.7,11.78,4.87,4.03,4.04,5.68,9.85,4.5,15.33-.15,.74-.37,1.49-.63,2.22h-.02c-.82,2.25-2.1,4.28-3.85,6.01-.77,.77-1.61,1.46-2.52,2.07-.59,.39-1.21,.76-1.86,1.07-4.92,2.43-10.86,2.3-15.7-.49-1.25-.71-2.4-1.6-3.45-2.65-1.06-1.06-1.94-2.21-2.67-3.49-2.76-4.81-2.89-10.72-.48-15.65Zm93.06-12.13l-13.81,51.48c-12.95-4.94-25.43-11.57-37.06-19.89,.26-.59,.49-1.18,.72-1.79,3.98-10.88,1.28-23.2-6.91-31.4-8.21-8.2-20.53-10.91-31.37-6.9-.61,.23-1.2,.46-1.79,.73-8.33-11.64-14.95-24.1-19.9-37.06l51.48-13.8,80.1-21.47-21.46,80.1Z"/></svg>