<svg width="140" height="140" viewBox="0 0 140 140" fill="#000" xmlns="http://www.w3.org/2000/svg">
    <path d="M19.9135 61.5706C19.4218 61.5706 19.0234 61.1722 19.0234 60.6806V58.331C19.0234 57.8393 19.4218 57.4409 19.9135 57.4409C20.4051 57.4409 20.8035 57.8393 20.8035 58.331V60.6806C20.8035 61.1722 20.4051 61.5706 19.9135 61.5706Z"  />
    <path d="M19.9135 71.5256C19.4218 71.5256 19.0234 71.1272 19.0234 70.6356V65.1742C19.0234 64.6826 19.4218 64.2842 19.9135 64.2842C20.4051 64.2842 20.8035 64.6826 20.8035 65.1742V70.6356C20.8035 71.1272 20.4051 71.5256 19.9135 71.5256Z"  />
    <path d="M1.7918 36.7131V33.1034C1.7918 32.6118 1.3934 32.2134 0.901758 32.2134C0.410117 32.2134 0.0117188 32.6118 0.0117188 33.1034V36.7131C0.0117188 37.2047 0.410117 37.6031 0.901758 37.6031C1.3934 37.6031 1.7918 37.2047 1.7918 36.7131Z"  />
    <path d="M1.67752 28.2607C2.12951 28.4537 2.65259 28.2435 2.84537 27.792C4.61752 23.6407 8.46888 20.6047 12.8967 19.8684C13.3817 19.7877 13.7093 19.3289 13.6286 18.8441C13.548 18.3587 13.0867 18.0352 12.6046 18.1118C7.58349 18.9477 3.2167 22.3892 1.20857 27.0926C1.01525 27.5451 1.22552 28.0682 1.67752 28.2607Z"  />
    <path d="M126.678 93.802V36.35C126.678 33.5156 124.372 31.21 121.538 31.21H18.4672C15.6328 31.21 13.3271 33.5159 13.3271 36.35V93.802C13.3271 96.6365 15.633 98.9421 18.4672 98.9421H121.538C124.372 98.9421 126.678 96.6362 126.678 93.802ZM15.1072 93.802V36.35C15.1072 34.4975 16.6144 32.99 18.4672 32.99H121.538C123.39 32.99 124.898 34.4975 124.898 36.35V93.802C124.898 95.6545 123.39 97.162 121.538 97.162H18.4672C16.6144 97.162 15.1072 95.6545 15.1072 93.802Z"  />
    <path d="M135.04 104.778H134.294V32.9842C134.294 27.8058 130.081 23.5933 124.903 23.5933H15.1009C9.92281 23.5933 5.71023 27.8058 5.71023 32.9842V104.778H4.96375C2.44648 104.778 0.398438 106.826 0.398438 109.343C0.398438 116.266 6.0307 121.899 12.9536 121.899H127.05C133.973 121.899 139.606 116.266 139.606 109.343C139.605 106.826 137.558 104.778 135.04 104.778ZM7.49059 32.9842C7.49059 28.7878 10.9045 25.3733 15.1012 25.3733H124.903C129.099 25.3733 132.514 28.7875 132.514 32.9842V104.778C114.03 104.778 21.831 104.778 7.49059 104.778V32.9842ZM87.6143 106.558C87.2012 108.571 85.4156 110.09 83.2823 110.09H56.7219C54.5886 110.09 52.8033 108.571 52.3901 106.558H87.6143ZM127.05 120.119H12.9536C7.01234 120.119 2.17852 115.285 2.17852 109.343C2.17852 107.808 3.42812 106.558 4.96375 106.558H50.5912C51.0251 109.557 53.605 111.87 56.7219 111.87H83.2823C86.3992 111.87 88.9791 109.557 89.413 106.558H135.04C136.576 106.558 137.826 107.808 137.826 109.343C137.825 115.285 132.992 120.119 127.05 120.119Z"  />
    <path d="M104.709 112.448H100.437C99.9453 112.448 99.5469 112.847 99.5469 113.338C99.5469 113.83 99.9453 114.228 100.437 114.228H104.709C105.201 114.228 105.599 113.83 105.599 113.338C105.599 112.847 105.201 112.448 104.709 112.448Z"  />
    <path d="M115.305 112.448H111.033C110.541 112.448 110.143 112.847 110.143 113.338C110.143 113.83 110.541 114.228 111.033 114.228H115.305C115.797 114.228 116.195 113.83 116.195 113.338C116.195 112.847 115.797 112.448 115.305 112.448Z"  />
    <path d="M125.901 112.448H121.628C121.137 112.448 120.738 112.847 120.738 113.338C120.738 113.83 121.137 114.228 121.628 114.228H125.901C126.392 114.228 126.791 113.83 126.791 113.338C126.791 112.847 126.392 112.448 125.901 112.448Z"  />
    <path d="M63.1464 72.094C60.388 72.094 57.6915 71.2761 55.3979 69.7436C53.1043 68.2112 51.3166 66.033 50.261 63.4845C49.2053 60.9361 48.9291 58.1318 49.4672 55.4264C50.0053 52.7209 51.3336 50.2358 53.2841 48.2853C55.2346 46.3347 57.7196 45.0064 60.4251 44.4682C63.1305 43.93 65.9348 44.2062 68.4833 45.2618C71.0317 46.3174 73.21 48.105 74.7425 50.3986C76.275 52.6921 77.093 55.3886 77.093 58.1471C77.0888 61.8447 75.618 65.3896 73.0035 68.0042C70.3889 70.6188 66.844 72.0896 63.1464 72.094Z"  />
    <path d="M76.8541 85.8002C73.1563 85.7964 69.611 84.3261 66.996 81.7117C64.381 79.0973 62.9098 75.5523 62.9053 71.8546V71.7746C62.9053 71.6897 62.939 71.6083 62.999 71.5483C63.059 71.4883 63.1404 71.4546 63.2253 71.4546C63.3101 71.4546 63.3915 71.4883 63.4515 71.5483C63.5116 71.6083 63.5453 71.6897 63.5453 71.7746V71.8546C63.5456 74.4863 64.3263 77.0589 65.7886 79.247C67.2509 81.4352 69.3293 83.1405 71.7608 84.1475C74.1923 85.1545 76.8678 85.4179 79.449 84.9044C82.0302 84.3909 84.4011 83.1235 86.2621 81.2626C88.123 79.4016 89.3904 77.0307 89.9039 74.4495C90.4174 71.8683 90.154 69.1928 89.147 66.7613C88.14 64.3297 86.4347 62.2514 84.2466 60.7891C82.0584 59.3268 79.4859 58.5461 76.8541 58.5458H76.7741C76.6892 58.5458 76.6078 58.512 76.5478 58.452C76.4878 58.392 76.4541 58.3106 76.4541 58.2258C76.4541 58.1409 76.4878 58.0595 76.5478 57.9995C76.6078 57.9395 76.6892 57.9058 76.7741 57.9058H76.8541C80.5531 57.9058 84.1006 59.3752 86.7162 61.9908C89.3318 64.6064 90.8013 68.1539 90.8013 71.853C90.8013 75.552 89.3318 79.0995 86.7162 81.7151C84.1006 84.3307 80.5531 85.8002 76.8541 85.8002Z"  />
    <path d="M63.1454 66.3136C60.5089 66.3136 58.3643 64.4096 58.3643 62.0691C58.3643 61.9842 58.398 61.9028 58.458 61.8428C58.518 61.7828 58.5994 61.7491 58.6843 61.7491C58.7691 61.7491 58.8505 61.7828 58.9105 61.8428C58.9705 61.9028 59.0043 61.9842 59.0043 62.0691C59.0043 64.0566 60.8619 65.6736 63.1454 65.6736C65.4289 65.6736 67.2897 64.0566 67.2897 62.0691C67.2897 60.0816 65.4305 58.4672 63.1454 58.4672C60.5089 58.4672 58.3643 56.5632 58.3643 54.2224C58.3643 51.8816 60.5083 49.9805 63.1454 49.9805C65.7825 49.9805 67.9297 51.8835 67.9297 54.2224C67.9297 54.3073 67.896 54.3887 67.836 54.4487C67.776 54.5087 67.6946 54.5424 67.6097 54.5424C67.5248 54.5424 67.4434 54.5087 67.3834 54.4487C67.3234 54.3887 67.2897 54.3073 67.2897 54.2224C67.2897 52.2365 65.4305 50.6205 63.1454 50.6205C60.8603 50.6205 59.0043 52.2365 59.0043 54.2224C59.0043 56.2083 60.8619 57.8272 63.1454 57.8272C65.7835 57.8272 67.9297 59.7299 67.9297 62.0691C67.9297 64.4083 65.7835 66.3136 63.1454 66.3136Z" fill="#fff"/>
    <path d="M63.1471 67.8158C63.0623 67.8158 62.9809 67.7821 62.9209 67.7221C62.8609 67.6621 62.8271 67.5807 62.8271 67.4958V48.7995C62.8271 48.7146 62.8609 48.6332 62.9209 48.5732C62.9809 48.5132 63.0623 48.4795 63.1471 48.4795C63.232 48.4795 63.3134 48.5132 63.3734 48.5732C63.4334 48.6332 63.4671 48.7146 63.4671 48.7995V67.4958C63.4671 67.5807 63.4334 67.6621 63.3734 67.7221C63.3134 67.7821 63.232 67.8158 63.1471 67.8158Z" fill="#000"/>
    <path d="M81.3155 68.2474C81.2306 68.2474 81.1493 68.2136 81.0892 68.1536C81.0292 68.0936 80.9955 68.0122 80.9955 67.9274C80.9955 65.9434 79.1395 64.3274 76.8547 64.3274C76.3728 64.3269 75.8936 64.3998 75.4336 64.5434C75.3935 64.556 75.3513 64.5605 75.3095 64.5569C75.2676 64.5532 75.2269 64.5413 75.1896 64.5218C75.1524 64.5024 75.1193 64.4758 75.0923 64.4436C75.0653 64.4114 75.0449 64.3742 75.0323 64.3341C75.0197 64.294 75.0151 64.2518 75.0188 64.2099C75.0225 64.1681 75.0344 64.1274 75.0538 64.0901C75.0733 64.0528 75.0999 64.0198 75.1321 63.9928C75.1643 63.9658 75.2015 63.9454 75.2416 63.9328C75.7627 63.7699 76.3056 63.6874 76.8515 63.688C79.4909 63.688 81.6355 65.5904 81.6355 67.928C81.6353 68.0128 81.6016 68.094 81.5416 68.1539C81.4816 68.2137 81.4003 68.2474 81.3155 68.2474Z"  />
    <path d="M76.8543 80.0201C74.215 80.0201 72.0703 78.1151 72.0703 75.774C72.0703 75.6891 72.104 75.6077 72.164 75.5477C72.224 75.4877 72.3054 75.454 72.3903 75.454C72.4752 75.454 72.5566 75.4877 72.6166 75.5477C72.6766 75.6077 72.7103 75.6891 72.7103 75.774C72.7103 77.7625 74.5679 79.3801 76.8511 79.3801C79.1343 79.3801 80.9951 77.7625 80.9951 75.774C80.9951 73.7855 79.1391 72.174 76.8543 72.174C74.3151 72.174 72.2198 70.414 72.0806 68.1679C72.0753 68.0831 72.104 67.9996 72.1604 67.9359C72.2167 67.8722 72.296 67.8335 72.3809 67.8282C72.4657 67.823 72.5492 67.8517 72.6129 67.9081C72.6766 67.9644 72.7153 68.0437 72.7206 68.1286C72.839 70.038 74.6537 71.534 76.8524 71.534C79.4918 71.534 81.6364 73.4361 81.6364 75.774C81.6364 78.1119 79.4905 80.0201 76.8543 80.0201Z"  />
    <path d="M76.8532 81.5214C76.7683 81.5214 76.6869 81.4877 76.6269 81.4277C76.5669 81.3677 76.5332 81.2863 76.5332 81.2014V62.506C76.5332 62.4212 76.5669 62.3398 76.6269 62.2798C76.6869 62.2197 76.7683 62.186 76.8532 62.186C76.9381 62.186 77.0195 62.2197 77.0795 62.2798C77.1395 62.3398 77.1732 62.4212 77.1732 62.506V81.2014C77.1732 81.2863 77.1395 81.3677 77.0795 81.4277C77.0195 81.4877 76.9381 81.5214 76.8532 81.5214Z"  />
</svg>