<?xml version="1.0" encoding="UTF-8"?><svg id="Layer_1" xmlns="http://www.w3.org/2000/svg" viewBox="0 0 44.01 44.01"><defs><style>.cls-1{fill:#fff;}</style></defs><path class="cls-1" d="M22,0C9.85,0,0,9.85,0,22s9.85,22,22,22,22-9.85,22-22S34.15,0,22,0Zm8.54,17.62c.01,.19,.01,.38,.01,.57,0,5.83-4.43,12.54-12.54,12.54h0c-2.39,0-4.74-.68-6.75-1.98,.35,.04,.7,.07,1.05,.07,1.98,0,3.91-.67,5.47-1.89-1.89-.04-3.54-1.27-4.12-3.06,.66,.13,1.34,.1,1.99-.07-2.06-.41-3.53-2.22-3.53-4.32v-.06c.61,.34,1.3,.53,2,.55-1.94-1.29-2.53-3.87-1.36-5.88,2.24,2.76,5.54,4.43,9.08,4.6-.36-1.53,.13-3.13,1.27-4.21,1.77-1.67,4.56-1.58,6.24,.19,.98-.19,1.93-.56,2.8-1.07-.33,1.02-1.02,1.88-1.94,2.43,.87-.1,1.72-.34,2.53-.69-.59,.89-1.34,1.66-2.2,2.28Z"/></svg>