<svg id="Layer_1" xmlns="http://www.w3.org/2000/svg" xmlns:xlink="http://www.w3.org/1999/xlink" viewBox="0 0 1011.69 303.28"><defs><style>.waves-1{fill:none;}.waves-2{fill:url(#waves-linear-gradient);}.waves-3{clip-path:url(#clippath);}.waves-4{fill:url(#waves-linear-gradient-3);}.waves-5{fill:url(#waves-linear-gradient-2);}</style><clipPath id="clippath"><rect class="waves-1" x="2.23" y="-21.8" width="1007.85" height="319.94"/></clipPath><linearGradient id="waves-linear-gradient" x1="499.04" y1="-214.16" x2="494.54" y2="127.75" gradientUnits="userSpaceOnUse"><stop offset="0" stop-color="#90a0ef"/><stop offset=".63" stop-color="#3d4782"/><stop offset="1" stop-color="#0c1341"/></linearGradient><linearGradient id="waves-linear-gradient-2" x1="532.49" y1="-156.21" x2="527.99" y2="185.69" xlink:href="#waves-linear-gradient"/><linearGradient id="waves-linear-gradient-3" x1="499.04" y1="-100.69" x2="494.54" y2="241.22" xlink:href="#waves-linear-gradient"/></defs><g class="waves-3"><g><path class="waves-2" d="M988.01,29.35c-6.83,4.3-11.34,7.14-22.05,7.14-10.71,0-15.22-2.84-22.05-7.14-8.13-5.12-18.24-11.49-37.1-11.49-18.86,0-28.98,6.37-37.1,11.49-6.83,4.3-11.34,7.14-22.05,7.14-10.71,0-15.22-2.84-22.05-7.14-8.12-5.12-18.24-11.49-37.1-11.49-18.86,0-28.98,6.37-37.1,11.49-6.83,4.3-11.34,7.14-22.05,7.14s-15.22-2.84-22.05-7.14c-8.12-5.12-18.24-11.49-37.1-11.49v.19c-18.8,0-28.88,6.35-36.98,11.45-6.8,4.29-11.3,7.12-21.98,7.12-10.67,0-15.17-2.83-21.98-7.12-8.1-5.1-18.18-11.45-36.98-11.45-18.8,0-28.88,6.35-36.98,11.45-6.8,4.29-11.3,7.12-21.97,7.12-10.67,0-15.17-2.83-21.97-7.12-8.1-5.1-18.18-11.45-36.98-11.45-18.8,0-28.88,6.35-36.98,11.45-6.8,4.29-11.3,7.12-21.97,7.12-10.67,0-15.17-2.83-21.97-7.12-7.75-4.89-17.34-10.9-34.64-11.4v-.05c-.4,0-.77,.02-1.17,.02-.39,0-.77-.02-1.17-.02v.05c-17.3,.5-26.89,6.52-34.65,11.41-6.8,4.29-11.3,7.12-21.98,7.12-10.67,0-15.17-2.83-21.98-7.12-8.1-5.1-18.18-11.45-36.98-11.45-18.8,0-28.88,6.35-36.98,11.45-6.8,4.29-11.3,7.12-21.97,7.12-10.67,0-15.17-2.83-21.97-7.12-8.1-5.1-18.18-11.45-36.98-11.45-18.8,0-28.88,6.35-36.98,11.45-6.8,4.29-11.3,7.12-21.97,7.12-10.67,0-15.17-2.83-21.97-7.12-8.1-5.1-18.18-11.45-36.98-11.45V147.53c0,46.75,37.9,84.64,84.65,84.64H316.52s0,0,0,0h353.71s0,0,0,0h270.24c46.75,0,84.64-37.91,84.64-84.66V17.86c-18.87,0-28.98,6.37-37.1,11.49Z"/><path class="waves-5" d="M1021.47,87.3c-6.83,4.3-11.34,7.14-22.05,7.14-10.71,0-15.22-2.84-22.05-7.14-8.13-5.12-18.24-11.49-37.1-11.49-18.86,0-28.98,6.37-37.1,11.49-6.83,4.3-11.34,7.14-22.05,7.14-10.71,0-15.22-2.84-22.05-7.14-8.12-5.12-18.24-11.49-37.1-11.49-18.86,0-28.98,6.37-37.1,11.49-6.83,4.3-11.34,7.14-22.05,7.14s-15.22-2.84-22.05-7.14c-8.12-5.12-18.24-11.49-37.1-11.49v.19c-18.8,0-28.88,6.35-36.98,11.45-6.8,4.29-11.3,7.12-21.98,7.12-10.67,0-15.17-2.83-21.98-7.12-8.1-5.1-18.18-11.45-36.98-11.45-18.8,0-28.88,6.35-36.98,11.45-6.8,4.29-11.3,7.12-21.97,7.12-10.67,0-15.17-2.83-21.97-7.12-8.1-5.1-18.18-11.45-36.98-11.45-18.8,0-28.88,6.35-36.98,11.45-6.8,4.29-11.3,7.12-21.97,7.12-10.67,0-15.17-2.83-21.97-7.12-7.75-4.89-17.34-10.9-34.64-11.4v-.05c-.4,0-.77,.02-1.17,.02-.39,0-.77-.02-1.17-.02v.05c-17.3,.5-26.89,6.52-34.65,11.41-6.8,4.29-11.3,7.12-21.98,7.12-10.67,0-15.17-2.83-21.98-7.12-8.1-5.1-18.18-11.45-36.98-11.45-18.8,0-28.88,6.35-36.98,11.45-6.8,4.29-11.3,7.12-21.97,7.12-10.67,0-15.17-2.83-21.97-7.12-8.1-5.1-18.18-11.45-36.98-11.45-18.8,0-28.88,6.35-36.98,11.45-6.8,4.29-11.3,7.12-21.97,7.12-10.67,0-15.17-2.83-21.97-7.12-8.1-5.1-18.18-11.45-36.98-11.45V205.47c0,46.75,37.9,84.64,84.65,84.64H349.97s0,0,0,0h353.71s0,0,0,0h270.24c46.75,0,84.64-37.91,84.64-84.66V75.8c-18.87,0-28.98,6.37-37.1,11.49Z"/><path class="waves-4" d="M988.01,142.82c-6.83,4.3-11.34,7.14-22.05,7.14-10.71,0-15.22-2.84-22.05-7.14-8.13-5.12-18.24-11.49-37.1-11.49-18.86,0-28.98,6.37-37.1,11.49-6.83,4.3-11.34,7.14-22.05,7.14-10.71,0-15.22-2.84-22.05-7.14-8.12-5.12-18.24-11.49-37.1-11.49-18.86,0-28.98,6.37-37.1,11.49-6.83,4.3-11.34,7.14-22.05,7.14s-15.22-2.84-22.05-7.14c-8.12-5.12-18.24-11.49-37.1-11.49v.19c-18.8,0-28.88,6.35-36.98,11.45-6.8,4.29-11.3,7.12-21.98,7.12-10.67,0-15.17-2.83-21.98-7.12-8.1-5.1-18.18-11.45-36.98-11.45-18.8,0-28.88,6.35-36.98,11.45-6.8,4.29-11.3,7.12-21.97,7.12-10.67,0-15.17-2.83-21.97-7.12-8.1-5.1-18.18-11.45-36.98-11.45-18.8,0-28.88,6.35-36.98,11.45-6.8,4.29-11.3,7.12-21.97,7.12-10.67,0-15.17-2.83-21.97-7.12-7.75-4.89-17.34-10.9-34.64-11.4v-.05c-.4,0-.77,.02-1.17,.02-.39,0-.77-.02-1.17-.02v.05c-17.3,.5-26.89,6.52-34.65,11.41-6.8,4.29-11.3,7.12-21.98,7.12-10.67,0-15.17-2.83-21.98-7.12-8.1-5.1-18.18-11.45-36.98-11.45-18.8,0-28.88,6.35-36.98,11.45-6.8,4.29-11.3,7.12-21.97,7.12-10.67,0-15.17-2.83-21.97-7.12-8.1-5.1-18.18-11.45-36.98-11.45-18.8,0-28.88,6.35-36.98,11.45-6.8,4.29-11.3,7.12-21.97,7.12-10.67,0-15.17-2.83-21.97-7.12-8.1-5.1-18.18-11.45-36.98-11.45v129.46c0,46.75,37.9,84.64,84.65,84.64H316.52s0,0,0,0h353.71s0,0,0,0h270.24c46.75,0,84.64-37.91,84.64-84.66V131.33c-18.87,0-28.98,6.37-37.1,11.49Z"/></g></g></svg>