<?xml version="1.0" encoding="UTF-8"?>
<svg width="26px" height="26px" viewBox="0 0 26 26" version="1.1" xmlns="http://www.w3.org/2000/svg" xmlns:xlink="http://www.w3.org/1999/xlink">
    <!-- Generator: Sketch 49.3 (51167) - http://www.bohemiancoding.com/sketch -->
    <title>Group@1x</title>
    <desc>Created with Sketch.</desc>
    <defs></defs>
    <g id="UI" stroke="none" stroke-width="1" fill="none" fill-rule="evenodd" stroke-linejoin="round">
        <g id="advertiser_overview_notifications" transform="translate(-1199.000000, -281.000000)" stroke="#55A8FD" stroke-width="2">
            <g id="Group-7-Copy" transform="translate(1200.000000, 279.000000)">
                <g id="Group" transform="translate(0.000000, 3.000000)">
                    <path d="M16.6956,24 L7.30429565,24 C7.30429565,21.4064348 9.40638261,17.7391304 11.9999478,17.7391304 C14.593513,17.7391304 16.6956,21.4064348 16.6956,24 L16.6956,24 Z" id="Stroke-1584"></path>
                    <path d="M15.1303826,12.5217391 C15.1303826,14.2502609 13.7289913,15.6521739 11.9999478,15.6521739 C10.2709043,15.6521739 8.86951304,14.2502609 8.86951304,12.5217391 C8.86951304,10.7932174 10.2709043,9.39130435 11.9999478,9.39130435 C13.7289913,9.39130435 15.1303826,10.7932174 15.1303826,12.5217391 L15.1303826,12.5217391 Z" id="Stroke-1585"></path>
                    <path d="M6.46617391,17.5337739 C3.40982609,14.4774261 3.40982609,9.52246957 6.46617391,6.46612174 C9.52252174,3.40977391 14.4774783,3.40977391 17.5338261,6.46612174 C20.5901739,9.52246957 20.5901739,14.4774261 17.5338261,17.5337739" id="Stroke-1586"></path>
                    <path d="M3.5148,20.4854087 C-1.17146087,15.7991478 -1.17146087,8.20106087 3.5148,3.5148 C8.20106087,-1.17146087 15.7991478,-1.17146087 20.4854087,3.5148 C25.1716696,8.20106087 25.1716696,15.7991478 20.4854087,20.4854087" id="Stroke-1587"></path>
                </g>
            </g>
        </g>
    </g>
</svg>