<?xml version="1.0" encoding="UTF-8"?>
<svg width="26px" height="26px" viewBox="0 0 26 26" version="1.1" xmlns="http://www.w3.org/2000/svg" xmlns:xlink="http://www.w3.org/1999/xlink">
    <!-- Generator: Sketch 49.3 (51167) - http://www.bohemiancoding.com/sketch -->
    <title>Group@1x</title>
    <desc>Created with Sketch.</desc>
    <defs></defs>
    <g id="UI" stroke="none" stroke-width="1" fill="none" fill-rule="evenodd" stroke-linejoin="round">
        <g id="advertiser_overview_notifications" transform="translate(-1200.000000, -384.000000)" stroke="#55A8FD" stroke-width="2">
            <g id="Group-7-Copy-2" transform="translate(1201.000000, 383.000000)">
                <g id="Group" transform="translate(0.000000, 2.000000)">
                    <path d="M7.82608696,19.826087 L3.65217391,15.6521739" id="Stroke-4447"></path>
                    <path d="M3.65217391,19.826087 L7.82608696,15.6521739" id="Stroke-4448"></path>
                    <path d="M5.2173913,3.65217391 L5.2173913,8.86956522" id="Stroke-4449"></path>
                    <path d="M7.82608696,6.26086957 L2.60869565,6.26086957" id="Stroke-4450"></path>
                    <path d="M15.1304348,6.26086957 L20.3478261,6.26086957" id="Stroke-4451"></path>
                    <path d="M15.1304348,18.7826087 L20.3478261,18.7826087" id="Stroke-4452"></path>
                    <path d="M15.1304348,18.7826087 L20.3478261,18.7826087" id="Stroke-4453"></path>
                    <path d="M15.1304348,16.6956522 L20.3478261,16.6956522" id="Stroke-4454"></path>
                    <path d="M11.4782609,0 L11.4782609,24" id="Stroke-4455"></path>
                    <path d="M0,11.4782609 L24,11.4782609" id="Stroke-4456"></path>
                    <path d="M24,20.8695652 C24,22.5986087 22.598087,24 20.8695652,24 L3.13043478,24 C1.40191304,24 0,22.5986087 0,20.8695652 L0,3.13043478 C0,1.40191304 1.40191304,0 3.13043478,0 L20.8695652,0 C22.598087,0 24,1.40191304 24,3.13043478 L24,20.8695652 L24,20.8695652 Z" id="Stroke-4457"></path>
                </g>
            </g>
        </g>
    </g>
</svg>